<svg width="35" height="35" viewBox="0 0 35 35" fill="none" xmlns="http://www.w3.org/2000/svg">
<g id="Group 10 Copy 4">
<circle id="Oval 7" cx="17.5" cy="17.5" r="17.5" fill="#D9D9D9"/>
<g id="share">
<rect id="Background" x="8" y="10" width="18.3527" height="14.4217" fill="white" fill-opacity="0.01"/>
<mask id="mask0_0_756" style="mask-type:luminance" maskUnits="userSpaceOnUse" x="8" y="10" width="19" height="15">
<rect id="Background_2" x="8" y="10" width="18.3527" height="14.4217" fill="white"/>
</mask>
<g mask="url(#mask0_0_756)">
<path id="Group" fill-rule="evenodd" clip-rule="evenodd" d="M17.8322 15.5771C17.8322 16.503 17.8326 17.4214 17.8314 18.3398C17.8313 18.4355 17.8311 18.5328 17.8148 18.6265C17.7554 18.9685 17.4659 19.1925 17.1245 19.1681C16.7864 19.144 16.5259 18.878 16.5238 18.5298C16.5181 17.6177 16.5214 16.7054 16.5211 15.7933C16.5211 15.7201 16.5211 15.6469 16.5211 15.5128C16.2575 15.7758 16.0332 16.0008 15.8076 16.2243C15.6235 16.4068 15.406 16.483 15.1507 16.4133C14.6835 16.2858 14.4919 15.7141 14.8256 15.3654C15.456 14.7066 16.1059 14.066 16.7598 13.4302C16.9918 13.2047 17.366 13.2119 17.6036 13.4434C18.2472 14.0701 18.8832 14.7048 19.51 15.3484C19.761 15.6061 19.7321 16.016 19.4799 16.2574C19.2263 16.5001 18.8362 16.5011 18.5697 16.2503C18.3352 16.0295 18.1094 15.7996 17.8793 15.5742C17.8764 15.5713 17.8671 15.5747 17.8322 15.5771ZM12.5825 22.4491C12.4873 22.4491 12.4137 22.4491 12.3401 22.4491C11.5718 22.4491 10.8035 22.4503 10.0351 22.4488C8.84485 22.4466 8.00269 21.6072 8.00159 20.4136C7.99907 17.6352 8.00005 14.8567 8.0011 12.0784C8.00154 10.8288 8.82465 10.0029 10.0753 10.0022C13.526 10.0003 16.9767 10.0015 20.4274 10.0015C21.724 10.0015 23.0205 9.99725 24.3171 10.003C25.3245 10.0075 26.0935 10.6092 26.3008 11.5515C26.3387 11.724 26.3498 11.9053 26.35 12.0826C26.3529 14.8473 26.3536 17.612 26.3512 20.3766C26.3502 21.4672 25.6942 22.2587 24.6566 22.4292C24.5424 22.448 24.4243 22.448 24.308 22.4482C23.5397 22.4498 22.7713 22.4491 22.003 22.4491C21.9293 22.4491 21.8556 22.4491 21.7584 22.4491C21.7584 22.6177 21.7595 22.7667 21.7583 22.9156C21.7508 23.7953 21.1347 24.4155 20.2513 24.4191C19.037 24.4241 17.8228 24.4204 16.6085 24.4204C15.7853 24.4204 14.9621 24.4219 14.1388 24.42C13.1978 24.4177 12.5861 23.8013 12.5825 22.8557C12.5821 22.7272 12.5825 22.5987 12.5825 22.4491ZM17.1742 21.1377C19.5271 21.1377 21.8799 21.1379 24.2328 21.1376C24.8092 21.1376 25.0416 20.9039 25.0417 20.3252C25.0418 17.5951 25.0418 14.8649 25.0417 12.1348C25.0417 11.5424 24.8105 11.3094 24.2222 11.3094C19.5233 11.3093 14.8245 11.3093 10.1256 11.3094C9.54448 11.3094 9.31261 11.5389 9.31261 12.1145C9.31239 14.8515 9.31239 17.5885 9.31261 20.3255C9.31261 20.919 9.53444 21.1376 10.1362 21.1377C12.4821 21.1378 14.8281 21.1377 17.1742 21.1377ZM20.4277 22.466C18.2432 22.466 16.0737 22.466 13.8945 22.466C13.8945 22.5783 13.8944 22.6739 13.8945 22.7695C13.8947 23.1007 13.9 23.1063 14.2259 23.1063C16.1188 23.1064 18.0116 23.1063 19.9045 23.1063C20.5042 23.1063 20.5154 23.0928 20.4277 22.466Z" fill="black"/>
</g>
</g>
</g>
</svg>
