<svg width="35" height="35" viewBox="0 0 35 35" fill="none" xmlns="http://www.w3.org/2000/svg">
<g id="Group 21">
<g id="Group 10 Copy 6">
<circle id="Oval 7" cx="17.5" cy="17.5" r="17.5" fill="#FF0051"/>
</g>
<g id="call">
<rect id="Background" x="28.1064" y="17.4998" width="15.0001" height="15.0001" transform="rotate(135 28.1064 17.4998)" fill="white" fill-opacity="0.01"/>
<mask id="mask0_0_772" style="mask-type:luminance" maskUnits="userSpaceOnUse" x="6" y="6" width="23" height="23">
<rect id="Background_2" x="28.1064" y="17.4998" width="15.0001" height="15.0001" transform="rotate(135 28.1064 17.4998)" fill="white"/>
</mask>
<g mask="url(#mask0_0_772)">
<path id="Shape" fill-rule="evenodd" clip-rule="evenodd" d="M25.2062 20.4001C24.9721 20.5476 24.7246 20.6557 24.4408 20.6479C24.1199 20.6391 23.8439 20.5217 23.6106 20.3004C23.1321 19.8461 22.6282 19.4233 22.0628 19.0795C21.8257 18.9353 21.5792 18.8065 21.3415 18.6631C20.9869 18.4494 20.8063 18.1293 20.755 17.7195C20.6694 17.037 20.5701 16.3561 20.471 15.6753C20.4653 15.6362 20.4165 15.5839 20.3773 15.5719C18.8589 15.108 17.3204 14.9561 15.7542 15.2939C15.3826 15.374 15.0157 15.4749 14.6454 15.5609C14.5589 15.5809 14.5309 15.6238 14.5197 15.7087C14.4281 16.4052 14.3347 17.1016 14.2347 17.797C14.1816 18.1663 13.9825 18.4501 13.6704 18.6468C13.2956 18.8831 12.8987 19.0866 12.5372 19.341C12.1873 19.5871 11.8457 19.8552 11.5443 20.1574C11.0587 20.6442 10.4542 20.827 9.79335 20.4C9.07518 19.6819 8.35701 18.9637 7.63888 18.2456C7.56165 18.0501 7.45788 17.8603 7.4133 17.6576C7.34087 17.3283 7.46505 17.0309 7.63892 16.754C7.81154 16.5814 7.98419 16.4088 8.15681 16.2361C8.19579 16.2076 8.23587 16.1804 8.27361 16.1504C8.70053 15.8103 9.11399 15.4515 9.55624 15.1328C10.789 14.2443 12.144 13.5969 13.6023 13.1746C15.9124 12.5055 18.2443 12.4324 20.5913 12.9668C22.6351 13.4321 24.4749 14.3236 26.113 15.6309C26.3599 15.828 26.5997 16.0341 26.8427 16.2361C27.0154 16.4088 27.188 16.5814 27.3606 16.754C27.4378 16.9496 27.5417 17.1392 27.5859 17.342C27.6577 17.671 27.5354 17.9689 27.3606 18.2456C26.6425 18.9637 25.9243 19.6819 25.2062 20.4001Z" fill="white"/>
</g>
</g>
</g>
</svg>
