<svg width="31" height="30" viewBox="0 0 31 30" fill="none" xmlns="http://www.w3.org/2000/svg">
<g id="Group 40 Copy 4">
<circle id="Oval" cx="15.0145" cy="15" r="14.5" fill="#2C2557" stroke="#2C2557"/>
<g id="maximize">
<path id="Group" fill-rule="evenodd" clip-rule="evenodd" d="M19.5937 11.2398C19.5148 11.2619 19.4842 11.3167 19.4438 11.357C18.7437 12.0553 18.045 12.7549 17.3454 13.4536C17.2987 13.5003 17.2516 13.5488 17.1969 13.5849C17.0456 13.6851 16.8601 13.6618 16.7351 13.5339C16.6099 13.4058 16.5908 13.2201 16.6939 13.071C16.7312 13.0171 16.7802 12.9707 16.827 12.9239C17.5215 12.2286 18.2163 11.5336 18.9123 10.8397C18.9544 10.7976 19.0072 10.7663 19.0572 10.7283C18.9884 10.6579 18.9315 10.6826 18.8823 10.6824C18.2613 10.6803 17.6402 10.6842 17.0193 10.6795C16.7177 10.6771 16.5373 10.3948 16.6697 10.1435C16.7368 10.0163 16.8445 9.94659 16.9908 9.94654C17.9856 9.94625 18.9804 9.94408 19.9752 9.94881C20.1857 9.94982 20.3255 10.0916 20.3266 10.3064C20.3315 11.2951 20.3313 12.2839 20.3273 13.2727C20.3263 13.4952 20.173 13.6427 19.9678 13.6457C19.7573 13.6487 19.5969 13.4925 19.5955 13.2657C19.5916 12.6507 19.594 12.0357 19.5938 11.4207C19.5937 11.3631 19.5937 11.3054 19.5937 11.2398ZM22.5065 9.1541C22.2931 8.28118 21.5686 7.71738 20.6456 7.71593C18.8179 7.71294 16.9903 7.71501 15.1627 7.71501C13.329 7.71501 11.4954 7.71337 9.6617 7.71564C8.53795 7.71704 7.73119 8.518 7.73047 9.63755C7.72825 13.2988 7.7283 16.9602 7.73047 20.6215C7.73114 21.7405 8.53848 22.5436 9.66126 22.5442C13.3165 22.546 16.9718 22.546 20.6271 22.5442C21.7587 22.5436 22.5585 21.7395 22.5589 20.6038C22.5604 16.9546 22.5593 13.3053 22.5598 9.65608C22.5598 9.48668 22.5467 9.31873 22.5065 9.1541ZM10.6953 19.0473C10.7636 18.9825 10.8066 18.9435 10.8477 18.9025C11.5471 18.2035 12.2463 17.504 12.9458 16.805C12.9883 16.7625 13.0303 16.718 13.0789 16.6833C13.2325 16.5741 13.427 16.5937 13.5559 16.7264C13.6799 16.8542 13.6978 17.0398 13.5942 17.1899C13.5569 17.2439 13.5083 17.2906 13.4616 17.3374C12.767 18.0328 12.0722 18.728 11.3759 19.4218C11.3341 19.4635 11.28 19.493 11.2271 19.5314C11.3034 19.6001 11.3595 19.5774 11.4092 19.5776C12.0303 19.5796 12.6514 19.5795 13.2725 19.5788C13.4326 19.5786 13.5515 19.6466 13.6229 19.7889C13.6883 19.9193 13.6718 20.0469 13.5887 20.1642C13.5133 20.2707 13.4062 20.3145 13.2769 20.3145C12.3001 20.3138 11.3232 20.3159 10.3463 20.3129C10.1015 20.3121 9.96209 20.1759 9.96107 19.9313C9.95707 18.9545 9.95731 17.9777 9.96064 17.0008C9.96141 16.7669 10.1136 16.6149 10.3252 16.6141C10.5416 16.6133 10.6936 16.7738 10.6944 17.0161C10.6969 17.6794 10.6953 18.3427 10.6953 19.0473ZM21.8118 20.631C21.8112 21.2145 21.4854 21.6446 20.9501 21.7694C20.8402 21.795 20.723 21.7973 20.6092 21.7973C16.966 21.7987 13.3228 21.7989 9.67956 21.7981C8.92744 21.7979 8.47705 21.3465 8.47696 20.5944C8.47633 16.9513 8.47628 13.308 8.47696 9.66483C8.4771 8.91237 8.92691 8.46212 9.68 8.46198C13.3232 8.46111 16.9664 8.46111 20.6096 8.46198C21.3619 8.46212 21.8118 8.91294 21.8123 9.66526C21.8133 11.4929 21.8126 13.3205 21.8126 15.1481C21.8125 16.9757 21.8137 18.8034 21.8118 20.631Z" fill="white"/>
</g>
</g>
</svg>
