<svg width="35" height="35" viewBox="0 0 35 35" fill="none" xmlns="http://www.w3.org/2000/svg">
<g id="Group 10 Copy 7">
<circle id="Oval 7" cx="17.5" cy="17.5" r="17.5" fill="#D9D9D9"/>
<g id="invite">
<rect id="Background" x="9" y="9" width="16.9925" height="17.0072" fill="white" fill-opacity="0.01"/>
<mask id="mask0_0_665" style="mask-type:luminance" maskUnits="userSpaceOnUse" x="9" y="9" width="17" height="18">
<rect id="Background_2" x="9" y="9" width="16.9925" height="17.0072" fill="white"/>
</mask>
<g mask="url(#mask0_0_665)">
<path id="Group" fill-rule="evenodd" clip-rule="evenodd" d="M17.499 17.5314C15.8764 17.5344 14.53 16.1973 14.5243 14.5776C14.5186 12.941 15.849 11.5998 17.4834 11.5946C19.1215 11.5894 20.4632 12.9195 20.4673 14.5529C20.4714 16.1839 19.1315 17.5284 17.499 17.5314ZM17.4984 16.3954C18.5141 16.3947 19.3326 15.5771 19.3337 14.562C19.3347 13.5464 18.519 12.7298 17.5017 12.7279C16.4755 12.7261 15.6552 13.5446 15.6579 14.5676C15.6605 15.5803 16.4821 16.3962 17.4984 16.3954ZM11.4716 21.7252C11.8719 20.3191 12.9099 19.571 14.1592 19.0915C16.5794 18.1627 18.9915 18.2139 21.3517 19.3224C22.1443 19.6946 22.8173 20.2282 23.2421 21.0188C23.358 21.2345 23.4345 21.4712 23.5335 21.7088C23.561 21.6739 23.5943 21.6375 23.6211 21.5969C24.4088 20.4068 24.82 19.0978 24.8599 17.6715C24.8626 17.5717 24.8592 17.4689 24.8822 17.3731C24.949 17.0941 25.2134 16.914 25.4918 16.9456C25.7775 16.978 25.9927 17.2158 25.9925 17.5156C25.9919 18.6556 25.7862 19.7586 25.3237 20.8009C24.1096 23.5373 22.0361 25.2559 19.102 25.8435C14.6727 26.7306 10.3275 23.9254 9.24891 19.5419C8.17808 15.1898 10.6522 10.7507 14.9437 9.41455C17.5614 8.59952 20.034 8.99636 22.3204 10.5162C22.6081 10.7073 22.6814 11.0532 22.5019 11.3182C22.3212 11.5851 21.9792 11.6492 21.691 11.4537C20.7752 10.8326 19.779 10.4121 18.683 10.2436C16.6088 9.92488 14.7187 10.3844 13.0469 11.65C11.4662 12.8466 10.5183 14.4471 10.2191 16.4055C9.92899 18.3047 10.349 20.0588 11.4148 21.6575C11.4275 21.6766 11.4444 21.693 11.4716 21.7252ZM24.0054 14.9863C24.0054 15.2535 24.0118 15.5292 24.0038 15.8045C23.9941 16.1384 23.7461 16.3793 23.4296 16.3764C23.1128 16.3733 22.8793 16.1285 22.8739 15.7908C22.8714 15.6375 22.8733 15.4842 22.8732 15.3309C22.8732 15.2143 22.8732 15.0977 22.8732 14.9598C22.6 14.9598 22.3426 14.9604 22.0853 14.9597C21.7056 14.9587 21.4567 14.7345 21.4564 14.3945C21.4562 14.0572 21.7085 13.8286 22.0842 13.8272C22.3375 13.8262 22.5908 13.827 22.8734 13.827C22.8734 13.5514 22.8628 13.2824 22.8781 13.015C22.8851 12.8914 22.9186 12.7558 22.9826 12.6519C23.1111 12.4435 23.3601 12.3664 23.5863 12.4315C23.8344 12.5029 23.994 12.7096 24.0045 12.9823C24.01 13.1235 24.006 13.2652 24.0061 13.4067C24.0062 13.5409 24.0061 13.675 24.0061 13.8271C24.2809 13.8271 24.5387 13.8261 24.7965 13.8273C25.1652 13.8291 25.428 14.0715 25.4217 14.4023C25.4156 14.7288 25.1588 14.9579 24.7965 14.9598C24.5489 14.9611 24.3014 14.9618 24.0537 14.9637C24.0435 14.9638 24.0333 14.9729 24.0054 14.9863ZM17.5094 19.6354C16.3907 19.6533 15.3047 19.8037 14.2831 20.271C13.7417 20.5187 13.246 20.8344 12.8855 21.323C12.4613 21.898 12.4541 22.5378 12.8903 23.1038C13.0531 23.3151 13.2492 23.5217 13.473 23.6619C15.833 25.1397 18.2805 25.2698 20.7965 24.0883C21.2829 23.8598 21.7455 23.5871 22.0813 23.145C22.5371 22.5448 22.5413 21.8884 22.083 21.2895C21.764 20.8726 21.3418 20.5833 20.8792 20.3523C19.8163 19.8216 18.6739 19.6578 17.5094 19.6354Z" fill="black"/>
</g>
</g>
</g>
</svg>
