<svg width="31" height="30" viewBox="0 0 31 30" fill="none" xmlns="http://www.w3.org/2000/svg">
<g id="Group 40 Copy 3">
<circle id="Oval" cx="15.0145" cy="15" r="14.5" fill="#2C2557" stroke="#2C2557"/>
<g id="star">
<path id="Shape" fill-rule="evenodd" clip-rule="evenodd" d="M14.9972 8.57144C15.2255 8.57159 15.3619 8.67394 15.4548 8.86345C16.0026 9.98122 16.5564 11.0961 17.1048 12.2136C17.1462 12.2981 17.1922 12.3354 17.2901 12.3492C18.5158 12.5224 19.7406 12.7024 20.9656 12.8805C21.3035 12.9296 21.4737 13.1195 21.4399 13.4087C21.4247 13.5389 21.3492 13.6314 21.2597 13.7187C20.3651 14.5901 19.4719 15.463 18.5763 16.3335C18.5171 16.391 18.4943 16.4394 18.5098 16.5279C18.7271 17.7748 18.9379 19.0229 19.152 20.2704C19.1856 20.4662 19.1314 20.6267 18.97 20.741C18.8078 20.8559 18.6382 20.8458 18.4645 20.7542C17.3549 20.1692 16.2435 19.5873 15.1347 19.0008C15.0505 18.9563 14.9888 18.9537 14.9024 18.9995C13.802 19.582 12.6985 20.1587 11.5974 20.7401C11.4116 20.8382 11.2317 20.8656 11.0548 20.7348C10.884 20.6085 10.8498 20.435 10.8851 20.2318C11.081 19.1054 11.2594 17.9756 11.4738 16.8527C11.5338 16.5386 11.4847 16.3375 11.2435 16.1123C10.3963 15.3212 9.57714 14.5002 8.74583 13.6921C8.60362 13.5538 8.55063 13.3908 8.60977 13.2041C8.66743 13.022 8.80308 12.921 8.9933 12.8946C9.09588 12.8804 9.19816 12.8639 9.30059 12.849C10.4603 12.6802 11.6199 12.5101 12.7803 12.3458C12.8705 12.3331 12.8935 12.2796 12.9245 12.2168C13.4774 11.0963 14.0323 9.9767 14.5825 8.85485C14.6733 8.66976 14.8096 8.57397 14.9972 8.57144V8.57144Z" stroke="white" stroke-width="1.4"/>
</g>
</g>
</svg>
