<svg width="26" height="26" viewBox="0 0 26 26" fill="none" xmlns="http://www.w3.org/2000/svg">
<g id="Home icon">
<g id="Shape">
<path fill-rule="evenodd" clip-rule="evenodd" d="M12.9931 1.00042C12.8838 1.00419 12.7785 1.04227 12.692 1.10927L0.713163 10.4566C0.486197 10.6335 0.445664 10.961 0.622629 11.1879C0.799595 11.4149 1.12705 11.4554 1.35401 11.2785L2.07523 10.716V24.4088C2.07537 24.6967 2.30862 24.9297 2.59625 24.9297H9.80005C9.85629 24.939 9.91368 24.939 9.96993 24.9297H16.0499C16.1061 24.939 16.1635 24.939 16.2198 24.9297H23.4289C23.7165 24.9296 23.9496 24.6965 23.9497 24.4088V10.716L24.6709 11.2785C24.8979 11.4554 25.2253 11.4149 25.4023 11.1879C25.5792 10.961 25.5387 10.6335 25.3117 10.4566L21.3456 7.36216V3.57604H18.2207V4.92285L13.3329 1.10927C13.236 1.03412 13.1157 0.995578 12.9931 1.00042V1.00042ZM13.0124 2.18143L22.908 9.90319V23.888H16.6581V13.9924H9.36666V23.888H3.11682V9.90319L13.0124 2.18143ZM19.2623 4.61769H20.304V6.54941L19.2623 5.73562V4.61769ZM10.4083 15.0341H15.6165V23.888H10.4083V15.0341Z" fill="white"/>
<path d="M12.9931 1.00042H13.1931V0.793405L12.9862 0.800541L12.9931 1.00042ZM12.692 1.10927L12.5695 0.951176L12.569 0.951589L12.692 1.10927ZM0.713163 10.4566L0.836141 10.6143L0.836201 10.6142L0.713163 10.4566ZM0.622629 11.1879L0.464906 11.3109H0.464906L0.622629 11.1879ZM1.35401 11.2785L1.47699 11.4362L1.47702 11.4362L1.35401 11.2785ZM2.07523 10.716H2.27523V10.3063L1.95223 10.5583L2.07523 10.716ZM2.07523 24.4088H1.87523L1.87523 24.4089L2.07523 24.4088ZM2.59625 24.9297V24.7297H2.59619L2.59625 24.9297ZM9.80005 24.9297L9.83266 24.7323L9.81646 24.7297H9.80005V24.9297ZM9.96993 24.9297V24.7297H9.95351L9.93732 24.7323L9.96993 24.9297ZM16.0499 24.9297L16.0825 24.7323L16.0663 24.7297H16.0499V24.9297ZM16.2198 24.9297V24.7297H16.2034L16.1872 24.7323L16.2198 24.9297ZM23.4289 24.9297V25.1297H23.4289L23.4289 24.9297ZM23.9497 24.4088L24.1497 24.4089V24.4088H23.9497ZM23.9497 10.716L24.0727 10.5583L23.7497 10.3063V10.716H23.9497ZM24.6709 11.2785L24.5479 11.4362L24.5479 11.4362L24.6709 11.2785ZM25.4023 11.1879L25.56 11.3109L25.4023 11.1879ZM25.3117 10.4566L25.1887 10.6142L25.1888 10.6143L25.3117 10.4566ZM21.3456 7.36216H21.1456V7.45979L21.2225 7.51984L21.3456 7.36216ZM21.3456 3.57604H21.5456V3.37604H21.3456V3.57604ZM18.2207 3.57604V3.37604H18.0207V3.57604H18.2207ZM18.2207 4.92285L18.0976 5.08053L18.4207 5.33257V4.92285H18.2207ZM13.3329 1.10927L13.4559 0.951582L13.4554 0.951214L13.3329 1.10927ZM12.9931 1.00042H12.7931V1.20848L13.001 1.20027L12.9931 1.00042ZM22.908 9.90319H23.108V9.80557L23.031 9.74552L22.908 9.90319ZM22.908 23.888V24.088H23.108V23.888H22.908ZM16.6581 23.888H16.4581V24.088H16.6581V23.888ZM16.6581 13.9924H16.8581V13.7924H16.6581V13.9924ZM9.36666 13.9924V13.7924H9.16666V13.9924H9.36666ZM9.36666 23.888V24.088H9.56666V23.888H9.36666ZM3.11682 23.888H2.91682V24.088H3.11682V23.888ZM3.11682 9.90319L2.99378 9.74552L2.91682 9.80557V9.90319H3.11682ZM20.304 4.61769H20.504V4.41769H20.304V4.61769ZM20.304 6.54941L20.1808 6.70701L20.504 6.95945V6.54941H20.304ZM19.2623 5.73562H19.0623V5.83317L19.1392 5.89323L19.2623 5.73562ZM19.2623 4.61769V4.41769H19.0623V4.61769H19.2623ZM15.6165 15.0341H15.8165V14.8341H15.6165V15.0341ZM15.6165 23.888V24.088H15.8165V23.888H15.6165ZM10.4083 23.888H10.2083V24.088H10.4083V23.888ZM10.4083 15.0341V14.8341H10.2083V15.0341H10.4083ZM12.9862 0.800541C12.835 0.805758 12.6892 0.858461 12.5695 0.951176L12.8145 1.26735C12.8678 1.22608 12.9327 1.20263 13 1.2003L12.9862 0.800541ZM12.569 0.951589L0.590126 10.2989L0.836201 10.6142L12.8151 1.26694L12.569 0.951589ZM0.590186 10.2988C0.276112 10.5437 0.220022 10.9968 0.464906 11.3109L0.780353 11.065C0.671305 10.9251 0.696282 10.7233 0.836141 10.6143L0.590186 10.2988ZM0.464906 11.3109C0.709789 11.625 1.16291 11.6811 1.47699 11.4362L1.23104 11.1208C1.09118 11.2298 0.889401 11.2048 0.780353 11.065L0.464906 11.3109ZM1.47702 11.4362L2.19823 10.8737L1.95223 10.5583L1.23101 11.1208L1.47702 11.4362ZM1.87523 10.716V24.4088H2.27523V10.716H1.87523ZM1.87523 24.4089C1.87542 24.8072 2.19819 25.1298 2.59631 25.1297L2.59619 24.7297C2.41906 24.7297 2.27532 24.5862 2.27523 24.4087L1.87523 24.4089ZM2.59625 25.1297H9.80005V24.7297H2.59625V25.1297ZM9.76744 25.127C9.84528 25.1398 9.9247 25.1398 10.0025 25.127L9.93732 24.7323C9.90267 24.7381 9.86731 24.7381 9.83266 24.7323L9.76744 25.127ZM9.96993 25.1297H16.0499V24.7297H9.96993V25.1297ZM16.0173 25.127C16.0951 25.1398 16.1745 25.1398 16.2524 25.127L16.1872 24.7323C16.1525 24.7381 16.1172 24.7381 16.0825 24.7323L16.0173 25.127ZM16.2198 25.1297H23.4289V24.7297H16.2198V25.1297ZM23.4289 25.1297C23.8269 25.1296 24.1496 24.8069 24.1497 24.4089L23.7497 24.4088C23.7497 24.586 23.606 24.7296 23.4288 24.7297L23.4289 25.1297ZM24.1497 24.4088V10.716H23.7497V24.4088H24.1497ZM23.8267 10.8737L24.5479 11.4362L24.7939 11.1208L24.0727 10.5583L23.8267 10.8737ZM24.5479 11.4362C24.862 11.6811 25.3151 11.625 25.56 11.3109L25.2445 11.065C25.1355 11.2048 24.9337 11.2298 24.7939 11.1208L24.5479 11.4362ZM25.56 11.3109C25.8049 10.9969 25.7488 10.5437 25.4347 10.2988L25.1888 10.6143C25.3286 10.7233 25.3536 10.9251 25.2445 11.065L25.56 11.3109ZM25.4348 10.2989L21.4686 7.20447L21.2225 7.51984L25.1887 10.6142L25.4348 10.2989ZM21.5456 7.36216V3.57604H21.1456V7.36216H21.5456ZM21.3456 3.37604H18.2207V3.77604H21.3456V3.37604ZM18.0207 3.57604V4.92285H18.4207V3.57604H18.0207ZM18.3437 4.76517L13.4559 0.951582L13.2099 1.26695L18.0976 5.08053L18.3437 4.76517ZM13.4554 0.951214C13.3213 0.847217 13.1548 0.793874 12.9852 0.800578L13.001 1.20027C13.0765 1.19728 13.1506 1.22103 13.2103 1.26732L13.4554 0.951214ZM13.1931 1.00042V1.00042H12.7931V1.00042H13.1931ZM12.8894 2.3391L22.7849 10.0609L23.031 9.74552L13.1354 2.02375L12.8894 2.3391ZM22.708 9.90319V23.888H23.108V9.90319H22.708ZM22.908 23.688H16.6581V24.088H22.908V23.688ZM16.8581 23.888V13.9924H16.4581V23.888H16.8581ZM16.6581 13.7924H9.36666V14.1924H16.6581V13.7924ZM9.16666 13.9924V23.888H9.56666V13.9924H9.16666ZM9.36666 23.688H3.11682V24.088H9.36666V23.688ZM3.31682 23.888V9.90319H2.91682V23.888H3.31682ZM3.23986 10.0609L13.1354 2.3391L12.8894 2.02375L2.99378 9.74552L3.23986 10.0609ZM19.2623 4.81769H20.304V4.41769H19.2623V4.81769ZM20.104 4.61769V6.54941H20.504V4.61769H20.104ZM20.4271 6.3918L19.3855 5.57802L19.1392 5.89323L20.1808 6.70701L20.4271 6.3918ZM19.4623 5.73562V4.61769H19.0623V5.73562H19.4623ZM10.4083 15.2341H15.6165V14.8341H10.4083V15.2341ZM15.4165 15.0341V23.888H15.8165V15.0341H15.4165ZM15.6165 23.688H10.4083V24.088H15.6165V23.688ZM10.6083 23.888V15.0341H10.2083V23.888H10.6083Z" fill="white"/>
</g>
</g>
</svg>
