<svg width="35" height="35" viewBox="0 0 35 35" fill="none" xmlns="http://www.w3.org/2000/svg">
<g id="Group 20">
<g id="Group 10 Copy 3">
<circle id="Oval 7" cx="17.5" cy="17.5" r="17.5" fill="#D9D9D9"/>
</g>
<g id="attachment">
<rect id="Background" x="13.1219" y="8.74902" width="8.75624" height="17.502" fill="white" fill-opacity="0.01"/>
<mask id="mask0_0_749" style="mask-type:luminance" maskUnits="userSpaceOnUse" x="13" y="8" width="9" height="19">
<rect id="Background_2" x="13.1219" y="8.74902" width="8.75624" height="17.502" fill="white"/>
</mask>
<g mask="url(#mask0_0_749)">
<path id="Group" fill-rule="evenodd" clip-rule="evenodd" d="M17.0208 26.2511C16.7962 26.1558 16.55 26.1563 16.3181 26.0865C14.9455 25.6726 13.9853 24.8042 13.4343 23.4849C13.2031 22.9314 13.1228 22.3477 13.123 21.7498C13.1247 18.5026 13.1174 15.2555 13.1269 12.0084C13.1309 10.6399 13.7649 9.64438 14.9928 9.03576C15.2637 8.90143 15.5557 8.82448 15.8562 8.78277C15.892 8.77778 15.9384 8.79764 15.9611 8.74902C16.189 8.74902 16.4169 8.74902 16.6448 8.74902C16.7669 8.81386 16.906 8.80048 17.0356 8.83432C18.5366 9.22607 19.4832 10.4432 19.4852 12.0028C19.4882 14.3157 19.4861 16.6285 19.4859 18.9413C19.4858 19.4141 19.4927 19.8871 19.4816 20.3596C19.4574 21.3888 18.6469 22.1975 17.5783 22.2696C16.6189 22.3345 15.7086 21.6008 15.5441 20.6351C15.52 20.4935 15.5131 20.3524 15.5131 20.2102C15.5126 17.772 15.514 15.3339 15.5094 12.8958C15.5091 12.7516 15.5486 12.7152 15.6891 12.7209C15.9734 12.7327 16.2589 12.733 16.5432 12.7209C16.685 12.7148 16.7094 12.765 16.7092 12.8939C16.7056 15.3207 16.7075 17.7473 16.705 20.1741C16.7048 20.4096 16.7439 20.625 16.9041 20.8078C17.1147 21.048 17.45 21.137 17.7582 21.0309C18.0614 20.9265 18.2671 20.6602 18.2874 20.3446C18.2907 20.2935 18.292 20.2422 18.292 20.191C18.2923 17.4623 18.2932 14.7337 18.2916 12.005C18.2911 11.0616 17.7687 10.3204 16.9155 10.0407C15.6631 9.63017 14.334 10.5554 14.3244 11.8735C14.3083 14.078 14.319 16.2826 14.3186 18.4872C14.3184 19.6094 14.3132 20.7317 14.3199 21.8538C14.3293 23.4323 15.4018 24.7193 16.9357 25.0055C18.6962 25.3341 20.4126 24.0906 20.6477 22.3199C20.6734 22.1269 20.6798 21.9344 20.6798 21.7409C20.6802 18.8015 20.6817 15.8621 20.6759 12.9226C20.6756 12.7555 20.717 12.7117 20.8809 12.7204C21.1593 12.7351 21.4392 12.7315 21.718 12.7213C21.8452 12.7166 21.8787 12.7499 21.8781 12.8796C21.8727 14.1386 21.8749 15.3975 21.8749 16.6565C21.8749 18.3597 21.8767 20.063 21.8743 21.7663C21.8721 23.299 21.265 24.5326 20.0256 25.441C19.427 25.8798 18.7489 26.1285 18.0123 26.2184C17.9772 26.2227 17.9299 26.1975 17.9095 26.251C17.6133 26.2511 17.317 26.2511 17.0208 26.2511Z" fill="black"/>
</g>
</g>
</g>
</svg>
